<?xml version="1.0" encoding="UTF-8" standalone="no"?>
<!DOCTYPE svg PUBLIC "-//W3C//DTD SVG 1.1//EN" "http://www.w3.org/Graphics/SVG/1.1/DTD/svg11.dtd">
<svg version="1.1" xmlns="http://www.w3.org/2000/svg" xmlns:xlink="http://www.w3.org/1999/xlink" preserveAspectRatio="xMidYMid meet" viewBox="0 0 640 640" width="640" height="640"><defs><path d="M640 317.88C640 493.32 496.61 635.75 320 635.75C143.39 635.75 0 493.32 0 317.88C0 142.44 143.39 0 320 0C496.61 0 640 142.44 640 317.88Z" id="erpjJrQ6I"></path><path d="M610.38 319.95C610.38 479.93 480.12 609.82 319.67 609.82C159.22 609.82 28.96 479.93 28.96 319.95C28.96 159.97 159.22 30.08 319.67 30.08C480.12 30.08 610.38 159.97 610.38 319.95Z" id="a6WB4yFYa"></path><path d="M602.94 318.47C602.94 473.85 476.16 600 320 600C163.84 600 37.06 473.85 37.06 318.47C37.06 163.1 163.84 36.95 320 36.95C476.16 36.95 602.94 163.1 602.94 318.47Z" id="fgktGJrHm"></path><path d="M511.14 320.48C511.14 426.64 424.99 512.84 318.87 512.84C212.75 512.84 126.6 426.64 126.6 320.48C126.6 214.32 212.75 128.13 318.87 128.13C424.99 128.13 511.14 214.32 511.14 320.48Z" id="aLtGBxxCo"></path><path d="M496.48 320.07C496.48 415.88 417.4 493.67 320 493.67C222.6 493.67 143.52 415.88 143.52 320.07C143.52 224.25 222.6 146.47 320 146.47C417.4 146.47 496.48 224.25 496.48 320.07Z" id="acNsEZ5MQ"></path><path d="M480 320C480 408.31 408.31 480 320 480C231.69 480 160 408.31 160 320C160 231.69 231.69 160 320 160C408.31 160 480 231.69 480 320Z" id="jlZPymeQg"></path><path d="M380 320C380 353.11 353.11 380 320 380C286.89 380 260 353.11 260 320C260 286.89 286.89 260 320 260C353.11 260 380 286.89 380 320Z" id="dFK8uTNVD"></path><path d="M341.46 540.45L362.92 487.64L320 487.64L277.08 487.64L298.54 540.45L320 593.26L341.46 540.45Z" id="i8xIqz46BV"></path><path d="M341.46 97.3L362.92 154.61L320 154.61L277.08 154.61L298.54 97.3L320 40L341.46 97.3Z" id="c4Xv4qYntf"></path><path d="M96.18 341.46L152.36 362.92L152.36 320L152.36 277.08L96.18 298.54L40 320L96.18 341.46Z" id="aZ2cwaVds"></path><path d="M544.38 341.46L488.76 362.92L488.76 320L488.76 277.08L544.38 298.54L600 320L544.38 341.46Z" id="a20eOpXhVQ"></path><path d="M494.97 180.25L469.94 235.63L439.59 205.28L409.24 174.93L464.62 149.9L520 124.87L494.97 180.25Z" id="ea47dPQ6eW"></path><path d="M150.69 173.4L174.81 227.87L205.16 197.51L235.51 167.17L181.04 143.05L126.58 118.94L150.69 173.4Z" id="b6fiytXtF"></path><path d="M139.56 455.22L164.52 399.92L194.87 430.27L225.22 460.62L169.91 485.58L114.61 510.53L139.56 455.22Z" id="e1J200ftv4"></path><path d="M495.91 459.29L470.75 403.79L440.4 434.14L410.05 464.49L465.55 489.65L521.06 514.8L495.91 459.29Z" id="a6khbD9LMz"></path><path d="M332.75 227.87L345.51 267.87L320 267.87L294.49 267.87L307.25 227.87L320 187.87L332.75 227.87Z" id="bTwp8iEpF"></path><path d="M332.75 413.03L345.51 373.03L320 373.03L294.49 373.03L307.25 413.03L320 453.03L332.75 413.03Z" id="b8zyBkFa0"></path><path d="M225.39 332.75L265.39 345.51L265.39 320L265.39 294.49L225.39 307.25L185.39 320L225.39 332.75Z" id="b3DqDRcKkd"></path><path d="M413.93 332.75L373.93 345.51L373.93 320L373.93 294.49L413.93 307.25L453.93 320L413.93 332.75Z" id="f2LMbznvsg"></path><path d="M392.39 262.7L373.12 300L355.09 281.96L337.05 263.93L374.35 244.66L411.65 225.4L392.39 262.7Z" id="c7jQ0NLFN"></path><path d="M247.1 265.84L266.37 303.15L284.41 285.11L302.44 267.08L265.14 247.81L227.84 228.54L247.1 265.84Z" id="b9DsqsNiY"></path><path d="M241.96 377.3L261.23 340L279.27 358.04L297.3 376.07L260 395.34L222.7 414.6L241.96 377.3Z" id="blLqcrHkm"></path><path d="M392.42 374.83L373.15 337.53L355.12 355.56L337.08 373.6L374.38 392.87L411.68 412.13L392.42 374.83Z" id="a4dFEFjmg"></path><path d="M382.25 320C382.25 354.03 354.1 381.66 319.44 381.66C284.77 381.66 256.63 354.03 256.63 320C256.63 285.97 284.77 258.34 319.44 258.34C354.1 258.34 382.25 285.97 382.25 320Z" id="cjJGSrywM"></path><path d="M217.43 121L222.2 182.01L261.1 163.87L300 145.73L256.33 102.86L212.67 60L217.43 121Z" id="hpVJm9xB3"></path><path d="M429.98 511.58L425.22 450.58L386.31 468.72L347.42 486.85L391.08 529.72L434.75 572.58L429.98 511.58Z" id="e17PVaSnW1"></path><path d="M210.38 512.48L215.15 451.47L254.05 469.61L292.95 487.75L249.29 530.62L205.62 573.48L210.38 512.48Z" id="a9Uibcstn2"></path><path d="M538.66 252.23L497.33 295.18L479.19 256.28L461.05 217.38L520.52 213.33L580 209.27L538.66 252.23Z" id="fkq1qddqb"></path><path d="M535.07 389.08L493.73 346.13L475.59 385.03L457.45 423.93L516.93 427.98L576.4 432.04L535.07 389.08Z" id="l3NeP19sJ"></path><path d="M102.38 382.95L143.72 340L161.86 378.9L180 417.8L120.52 421.86L61.05 425.91L102.38 382.95Z" id="a2g9OrcNj0"></path><path d="M102.38 253.52L143.72 296.47L161.86 257.57L180 218.67L120.52 214.62L61.05 210.56L102.38 253.52Z" id="cesiH5OyQ"></path><path d="M428.2 124.13L423.44 185.13L384.53 166.99L345.64 148.85L389.3 105.99L432.97 63.12L428.2 124.13Z" id="a2KIRid6y0"></path></defs><g><g><g><use xlink:href="#erpjJrQ6I" opacity="1" fill="#00328a" fill-opacity="1"></use></g><g><use xlink:href="#a6WB4yFYa" opacity="1" fill="#ffffff" fill-opacity="1"></use></g><g><use xlink:href="#fgktGJrHm" opacity="1" fill="#00328a" fill-opacity="1"></use></g><g><use xlink:href="#aLtGBxxCo" opacity="1" fill="#00328a" fill-opacity="1"></use></g><g><use xlink:href="#acNsEZ5MQ" opacity="1" fill="#ffffff" fill-opacity="1"></use></g><g><use xlink:href="#jlZPymeQg" opacity="1" fill="#920000" fill-opacity="1"></use></g><g><use xlink:href="#dFK8uTNVD" opacity="1" fill="#ffffff" fill-opacity="1"></use></g><g><use xlink:href="#i8xIqz46BV" opacity="1" fill="#ffffff" fill-opacity="1"></use></g><g><use xlink:href="#c4Xv4qYntf" opacity="1" fill="#ffffff" fill-opacity="1"></use></g><g><use xlink:href="#aZ2cwaVds" opacity="1" fill="#ffffff" fill-opacity="1"></use></g><g><use xlink:href="#a20eOpXhVQ" opacity="1" fill="#ffffff" fill-opacity="1"></use></g><g><use xlink:href="#ea47dPQ6eW" opacity="1" fill="#ffffff" fill-opacity="1"></use></g><g><use xlink:href="#b6fiytXtF" opacity="1" fill="#ffffff" fill-opacity="1"></use></g><g><use xlink:href="#e1J200ftv4" opacity="1" fill="#ffffff" fill-opacity="1"></use></g><g><use xlink:href="#a6khbD9LMz" opacity="1" fill="#ffffff" fill-opacity="1"></use></g><g><use xlink:href="#bTwp8iEpF" opacity="1" fill="#ffffff" fill-opacity="1"></use></g><g><use xlink:href="#b8zyBkFa0" opacity="1" fill="#ffffff" fill-opacity="1"></use></g><g><use xlink:href="#b3DqDRcKkd" opacity="1" fill="#ffffff" fill-opacity="1"></use></g><g><use xlink:href="#f2LMbznvsg" opacity="1" fill="#ffffff" fill-opacity="1"></use></g><g><use xlink:href="#c7jQ0NLFN" opacity="1" fill="#ffffff" fill-opacity="1"></use></g><g><use xlink:href="#b9DsqsNiY" opacity="1" fill="#ffffff" fill-opacity="1"></use></g><g><use xlink:href="#blLqcrHkm" opacity="1" fill="#ffffff" fill-opacity="1"></use></g><g><use xlink:href="#a4dFEFjmg" opacity="1" fill="#ffffff" fill-opacity="1"></use></g><g><use xlink:href="#cjJGSrywM" opacity="1" fill="#920000" fill-opacity="1"></use></g><g><use xlink:href="#hpVJm9xB3" opacity="1" fill="#ffffff" fill-opacity="1"></use></g><g><use xlink:href="#e17PVaSnW1" opacity="1" fill="#ffffff" fill-opacity="1"></use></g><g><use xlink:href="#a9Uibcstn2" opacity="1" fill="#ffffff" fill-opacity="1"></use></g><g><use xlink:href="#fkq1qddqb" opacity="1" fill="#ffffff" fill-opacity="1"></use></g><g><use xlink:href="#l3NeP19sJ" opacity="1" fill="#ffffff" fill-opacity="1"></use></g><g><use xlink:href="#a2g9OrcNj0" opacity="1" fill="#ffffff" fill-opacity="1"></use></g><g><use xlink:href="#cesiH5OyQ" opacity="1" fill="#ffffff" fill-opacity="1"></use></g><g><use xlink:href="#a2KIRid6y0" opacity="1" fill="#ffffff" fill-opacity="1"></use></g></g></g></svg>