<?xml version="1.0" encoding="UTF-8" standalone="no"?>
<!DOCTYPE svg PUBLIC "-//W3C//DTD SVG 1.1//EN" "http://www.w3.org/Graphics/SVG/1.1/DTD/svg11.dtd">
<svg version="1.1" xmlns="http://www.w3.org/2000/svg" xmlns:xlink="http://www.w3.org/1999/xlink" preserveAspectRatio="xMidYMid meet" viewBox="0 0 640 640" width="640" height="640"><defs><path d="M320 98.31L146.97 199.16L146.97 400.84L320 501.69L493.03 400.84L493.03 199.16L320 98.31Z" id="f4qMKyrLw6"></path><path d="M492.87 200L321.29 300L147.13 200" id="bVaFb74j9"></path><path d="M492.7 200L321.12 300L320 500" id="e1a5HVHxcS"></path><path d="M352.81 200C352.81 217.36 338.11 231.46 320 231.46C301.89 231.46 287.19 217.36 287.19 200C287.19 182.64 301.89 168.54 320 168.54C338.11 168.54 352.81 182.64 352.81 200Z" id="a3qPoBslLt"></path><path d="M260 351.46C260 368.82 247.06 382.92 231.12 382.92C215.19 382.92 202.25 368.82 202.25 351.46C202.25 334.1 215.19 320 231.12 320C247.06 320 260 334.1 260 351.46Z" id="l2p3035Kh"></path><path d="M444.49 351.46C444.49 368.82 432.31 382.92 417.3 382.92C402.3 382.92 390.11 368.82 390.11 351.46C390.11 334.1 402.3 320 417.3 320C432.31 320 444.49 334.1 444.49 351.46Z" id="cfgDkmJL5"></path></defs><g><g><g><use xlink:href="#f4qMKyrLw6" opacity="1" fill="#ffffff" fill-opacity="1"></use><g><use xlink:href="#f4qMKyrLw6" opacity="1" fill-opacity="0" stroke="#000000" stroke-width="3" stroke-opacity="1"></use></g></g><g><g><use xlink:href="#bVaFb74j9" opacity="1" fill-opacity="0" stroke="#000000" stroke-width="3" stroke-opacity="1"></use></g></g><g><g><use xlink:href="#e1a5HVHxcS" opacity="1" fill-opacity="0" stroke="#000000" stroke-width="3" stroke-opacity="1"></use></g></g><g><use xlink:href="#a3qPoBslLt" opacity="1" fill="#ff0000" fill-opacity="1"></use></g><g><use xlink:href="#l2p3035Kh" opacity="1" fill="#ff0000" fill-opacity="1"></use></g><g><use xlink:href="#cfgDkmJL5" opacity="1" fill="#ff0000" fill-opacity="1"></use></g></g></g></svg>